<?xml version="1.0" encoding="UTF-8"?><svg id="Layer_1" xmlns="http://www.w3.org/2000/svg" viewBox="0 0 64.18 65.18"><defs><style>.cls-1{opacity:.1;}.cls-2{fill:#e20d26;}</style></defs><g class="cls-1"><path class="cls-2" d="m43.14,40.37c.05-.98.22-1.95.49-2.9h0c3.12-10.66-8.04-19.88-17.92-14.8l-.27.14c-.79.41-1.62.73-2.48.96l-8.78,2.37c-9.95,2.69-12.68,15.5-4.69,22.01l6.4,5.22,6.17,5.03c8.03,6.55,20.09,1.2,20.63-9.15l.46-8.89Z"/><circle class="cls-2" cx="54.41" cy="43.47" r="8.37" transform="translate(-11.22 20.18) rotate(-19.08)"/><circle class="cls-2" cx="52.5" cy="22.76" r="7.85" transform="translate(15.62 66.5) rotate(-73.3)"/><circle class="cls-2" cx="17.6" cy="13.45" r="8.37" transform="translate(-.34 26.45) rotate(-73.3)"/><circle class="cls-2" cx="38.28" cy="11.16" r="7.85" transform="translate(5.44 33.77) rotate(-50.8)"/></g></svg>