<?xml version="1.0" encoding="UTF-8"?><svg id="Layer_1" xmlns="http://www.w3.org/2000/svg" viewBox="0 0 98.31 98.31"><defs><style>.cls-1{fill:#fffff9;}.cls-2{fill:#fcaf03;}</style></defs><circle class="cls-1" cx="49.15" cy="49.15" r="49.15"/><path class="cls-2" d="m46.8,61.22c.69-.47.94-1.38.59-2.14l-6.86-15.16c-.35-.76-1.19-1.18-2-.97-3.83.99-7.93-.92-9.57-4.68-1.76-4.05.02-8.81,4.01-10.7,2.05-.97,4.3-1.02,6.27-.32.78-1.95,2.29-3.6,4.38-4.5,4.05-1.75,8.81.05,10.69,4.05,1.75,3.72.47,8.06-2.8,10.28-.69.47-.94,1.38-.59,2.14l6.86,15.16c.35.76,1.19,1.18,2,.97,3.83-.99,7.93.92,9.57,4.68,1.76,4.05-.02,8.81-4.01,10.7-2.05.97-4.3,1.02-6.27.32-.78,1.95-2.29,3.6-4.38,4.5-4.05,1.75-8.81-.05-10.69-4.05-1.75-3.72-.47-8.06,2.8-10.28Z"/></svg>