<?xml version="1.0" encoding="UTF-8"?><svg id="Layer_1" xmlns="http://www.w3.org/2000/svg" viewBox="0 0 98.31 98.31"><defs><style>.cls-1{fill:#fffff9;}.cls-2{fill:#fcaf03;}</style></defs><circle class="cls-1" cx="49.15" cy="49.15" r="49.15"/><path class="cls-2" d="m78.44,57.53h0l-8.89-21.64h0c-1.47-3.12-10.04-5.52-20.4-5.52s-19.69,2.62-20.55,5.94h0s-8.62,20.94-8.62,20.94c-.23.46-.35.94-.35,1.42,0,5.11,13.21,9.26,29.52,9.26s29.52-4.15,29.52-9.26c0-.39-.09-.77-.23-1.15Zm-37.15-4.61c0-1.13.92-2.05,2.05-2.05s2.05.92,2.05,2.05-.92,2.05-2.05,2.05-2.05-.92-2.05-2.05Zm3.7-3.64c0-1.06.86-1.92,1.92-1.92s1.92.86,1.92,1.92-.86,1.92-1.92,1.92-1.92-.86-1.92-1.92Zm6.16,11.48h-3.97c-2.52,0-3.99-2.86-2.52-4.91l1.3-1.81c.13-.18.24-.37.32-.57l.03-.07c1.09-2.49,4.64-2.47,5.69.03h0c.09.22.21.43.35.63l1.29,1.76c1.5,2.05.04,4.93-2.5,4.93Zm-1.66-11.48c0-1.06.86-1.92,1.92-1.92s1.92.86,1.92,1.92-.86,1.92-1.92,1.92-1.92-.86-1.92-1.92Zm5.49,5.69c-1.13,0-2.05-.92-2.05-2.05s.92-2.05,2.05-2.05,2.05.92,2.05,2.05-.92,2.05-2.05,2.05Zm-5.82-12.84c-10.22,0-18.5-2.37-18.5-5.29s8.28-5.29,18.5-5.29,18.5,2.37,18.5,5.29-8.28,5.29-18.5,5.29Z"/></svg>