<?xml version="1.0" encoding="UTF-8"?><svg id="Layer_1" xmlns="http://www.w3.org/2000/svg" viewBox="0 0 62.34 57.96"><defs><style>.cls-1{fill:#fffffb;}</style></defs><path class="cls-1" d="m24.6,36.46c-.05-.91-.2-1.81-.46-2.68h0c-2.89-9.88,7.45-18.42,16.6-13.71l.25.13c.73.38,1.5.68,2.3.89l8.13,2.2c9.21,2.49,11.74,14.36,4.35,20.39l-5.92,4.83-5.72,4.66c-7.44,6.06-18.61,1.11-19.11-8.47l-.43-8.24Z"/><circle class="cls-1" cx="14.16" cy="39.34" r="7.75" transform="translate(-27.65 39.85) rotate(-70.92)"/><circle class="cls-1" cx="15.93" cy="20.15" r="7.27" transform="translate(-5.12 5.43) rotate(-16.7)"/><circle class="cls-1" cx="48.25" cy="11.53" r="7.75" transform="translate(-1.28 14.35) rotate(-16.7)"/><circle class="cls-1" cx="29.1" cy="9.41" r="7.27" transform="translate(.6 20.51) rotate(-39.2)"/></svg>