<?xml version="1.0" encoding="UTF-8"?><svg id="Layer_1" xmlns="http://www.w3.org/2000/svg" viewBox="0 0 62.32 57.44"><defs><style>.cls-1{opacity:.1;}.cls-2{fill:#e20d26;}</style></defs><g class="cls-1"><path class="cls-2" d="m23.7,35.94c-.05-.91-.2-1.81-.46-2.68h0c-2.89-9.88,7.45-18.42,16.6-13.71l.25.13c.73.38,1.5.68,2.3.89l8.13,2.2c9.21,2.49,11.74,14.36,4.35,20.39l-5.92,4.83-5.72,4.66c-7.44,6.06-18.61,1.11-19.11-8.47l-.43-8.24Z"/><circle class="cls-2" cx="13.25" cy="38.82" r="7.75" transform="translate(-27.76 38.65) rotate(-70.92)"/><circle class="cls-2" cx="15.02" cy="19.63" r="7.27" transform="translate(-5.01 5.15) rotate(-16.7)"/><circle class="cls-2" cx="47.35" cy="11.01" r="7.75" transform="translate(-1.17 14.07) rotate(-16.7)"/><circle class="cls-2" cx="28.2" cy="8.89" r="7.27" transform="translate(.73 19.82) rotate(-39.2)"/></g></svg>