<?xml version="1.0" encoding="UTF-8"?><svg id="Layer_1" xmlns="http://www.w3.org/2000/svg" viewBox="0 0 67.17 59.22"><defs><style>.cls-1{fill:#e20d26;}</style></defs><path class="cls-1" d="m44.43,37.06c.05-.98.22-1.95.49-2.9h0c3.12-10.66-8.04-19.88-17.92-14.8l-.27.14c-.79.41-1.62.73-2.48.96l-8.78,2.37c-9.95,2.69-12.68,15.5-4.69,22.01l6.4,5.22,6.17,5.03c8.03,6.55,20.09,1.2,20.63-9.15l.46-8.89Z"/><circle class="cls-1" cx="55.7" cy="40.16" r="8.37" transform="translate(-10.07 20.42) rotate(-19.08)"/><circle class="cls-1" cx="53.79" cy="19.45" r="7.85" transform="translate(19.71 65.38) rotate(-73.3)"/><circle class="cls-1" cx="18.9" cy="10.14" r="8.37" transform="translate(3.75 25.33) rotate(-73.3)"/><circle class="cls-1" cx="39.57" cy="7.85" r="7.85" transform="translate(8.48 33.55) rotate(-50.8)"/></svg>