<?xml version="1.0" encoding="UTF-8"?><svg id="Layer_1" xmlns="http://www.w3.org/2000/svg" viewBox="0 0 67.65 64.85"><defs><style>.cls-1{fill:#fcaf03;}</style></defs><path class="cls-1" d="m45.22,40.18c.05-.98.22-1.95.49-2.9h0c3.12-10.66-8.04-19.88-17.92-14.8l-.27.14c-.79.41-1.62.73-2.48.96l-8.78,2.37c-9.95,2.69-12.68,15.5-4.69,22.01l6.4,5.22,6.17,5.03c8.03,6.55,20.09,1.2,20.63-9.15l.46-8.89Z"/><circle class="cls-1" cx="56.49" cy="43.28" r="8.37" transform="translate(-11.05 20.85) rotate(-19.08)"/><circle class="cls-1" cx="54.58" cy="22.57" r="7.85" transform="translate(17.28 68.36) rotate(-73.3)"/><circle class="cls-1" cx="19.69" cy="13.26" r="8.37" transform="translate(1.32 28.31) rotate(-73.3)"/><circle class="cls-1" cx="40.36" cy="10.97" r="7.85" transform="translate(6.35 35.31) rotate(-50.8)"/></svg>