<?xml version="1.0" encoding="UTF-8"?><svg id="Layer_1" xmlns="http://www.w3.org/2000/svg" viewBox="0 0 64.18 62.64"><defs><style>.cls-1{fill:#fcaf03;}</style></defs><path class="cls-1" d="m25.02,39.58c-.05-.91-.2-1.81-.46-2.68h0c-2.89-9.88,7.45-18.42,16.6-13.71l.25.13c.73.38,1.5.68,2.3.89l8.13,2.2c9.21,2.49,11.74,14.36,4.35,20.39l-5.92,4.83-5.72,4.66c-7.44,6.06-18.61,1.11-19.11-8.47l-.43-8.24Z"/><circle class="cls-1" cx="14.58" cy="42.46" r="7.75" transform="translate(-30.31 42.35) rotate(-70.92)"/><circle class="cls-1" cx="16.35" cy="23.27" r="7.27" transform="translate(-6 5.68) rotate(-16.7)"/><circle class="cls-1" cx="48.67" cy="14.65" r="7.75" transform="translate(-2.16 14.6) rotate(-16.7)"/><circle class="cls-1" cx="29.52" cy="12.53" r="7.27" transform="translate(-1.27 21.48) rotate(-39.2)"/></svg>