<?xml version="1.0" encoding="UTF-8"?><svg id="Layer_1" xmlns="http://www.w3.org/2000/svg" viewBox="0 0 62.41 64.85"><defs><style>.cls-1{fill:#fffffb;}</style></defs><path class="cls-1" d="m40.52,41.74c.05-.98.22-1.95.49-2.9h0c3.12-10.66-8.04-19.88-17.92-14.8l-.27.14c-.79.41-1.62.73-2.48.96l-8.78,2.37c-9.95,2.69-12.68,15.5-4.69,22.01l6.4,5.22,6.17,5.03c8.03,6.55,20.09,1.2,20.63-9.15l.46-8.89Z"/><circle class="cls-1" cx="51.79" cy="44.84" r="8.37" transform="translate(-11.81 19.4) rotate(-19.08)"/><circle class="cls-1" cx="49.88" cy="24.13" r="7.85" transform="translate(12.44 64.97) rotate(-73.3)"/><circle class="cls-1" cx="14.98" cy="14.82" r="8.37" transform="translate(-3.52 24.92) rotate(-73.3)"/><circle class="cls-1" cx="35.66" cy="12.53" r="7.85" transform="translate(3.41 32.24) rotate(-50.8)"/></svg>