<svg id="visual" viewBox="0 0 540 960" width="540" height="960" xmlns="http://www.w3.org/2000/svg" xmlns:xlink="http://www.w3.org/1999/xlink" version="1.1"><rect x="0" y="0" width="540" height="960" fill="#a70107"></rect><defs><linearGradient id="grad1_0" x1="0%" y1="0%" x2="100%" y2="100%"><stop offset="30%" stop-color="#a70107" stop-opacity="1"></stop><stop offset="70%" stop-color="#a70107" stop-opacity="1"></stop></linearGradient></defs><defs><linearGradient id="grad2_0" x1="0%" y1="0%" x2="100%" y2="100%"><stop offset="30%" stop-color="#a70107" stop-opacity="1"></stop><stop offset="70%" stop-color="#a70107" stop-opacity="1"></stop></linearGradient></defs><g transform="translate(540, 0)"><path d="M0 405C-34.1 393.6 -68.2 382.2 -98.6 368C-129.1 353.9 -155.9 337 -187.5 324.8C-219.1 312.5 -255.5 304.8 -285.7 285.7C-315.9 266.6 -339.9 236.1 -350.7 202.5C-361.6 168.9 -359.2 132.3 -366.1 98.1C-372.9 63.8 -389 31.9 -405 0L0 0Z" fill="#ffbf15"></path></g><g transform="translate(0, 960)"><path d="M0 -405C30.7 -386.8 61.4 -368.6 97.3 -363.2C133.2 -357.8 174.3 -365.1 201.5 -349C228.7 -333 242.2 -293.5 267.3 -267.3C292.4 -241 329.1 -228 350.7 -202.5C372.4 -177 378.9 -139.1 385.4 -103.3C391.9 -67.4 398.5 -33.7 405 0L0 0Z" fill="#ffbf15"></path></g></svg>