<svg id="visual" viewBox="0 0 960 540" width="960" height="540" xmlns="http://www.w3.org/2000/svg" xmlns:xlink="http://www.w3.org/1999/xlink" version="1.1"><rect x="0" y="0" width="960" height="540" fill="#a70107"></rect><defs><linearGradient id="grad1_0" x1="43.8%" y1="0%" x2="100%" y2="100%"><stop offset="14.444444444444446%" stop-color="#a70107" stop-opacity="1"></stop><stop offset="85.55555555555554%" stop-color="#a70107" stop-opacity="1"></stop></linearGradient></defs><defs><linearGradient id="grad2_0" x1="0%" y1="0%" x2="56.3%" y2="100%"><stop offset="14.444444444444446%" stop-color="#a70107" stop-opacity="1"></stop><stop offset="85.55555555555554%" stop-color="#a70107" stop-opacity="1"></stop></linearGradient></defs><g transform="translate(960, 0)"><path d="M0 270C-23.5 267.9 -47.1 265.8 -69.4 258.9C-91.7 252 -112.7 240.3 -131 226.9C-149.3 213.5 -164.9 198.4 -183.8 183.8C-202.8 169.3 -225.1 155.3 -233.8 135C-242.6 114.7 -237.7 88.2 -241.5 64.7C-245.2 41.2 -257.6 20.6 -270 0L0 0Z" fill="#ffbf15"></path></g><g transform="translate(0, 540)"><path d="M0 -270C20.8 -257.8 41.6 -245.7 64.7 -241.5C87.9 -237.3 113.4 -241 135 -233.8C156.6 -226.7 174.4 -208.6 190.2 -190.2C206 -171.8 220 -153.1 229.5 -132.5C239 -111.9 244.2 -89.4 250.2 -67C256.2 -44.6 263.1 -22.3 270 0L0 0Z" fill="#ffbf15"></path></g></svg>